<svg xmlns="http://www.w3.org/2000/svg" width="60.52" height="77.895" viewBox="0 0 60.52 77.895">
  <g id="bxl-django" transform="translate(-4.239 -2.011)">
    <path id="Path_6" data-name="Path 6" d="M17.081,41.93c-.043,7.74,5.634,12.352,14.692,10.255V31.671C22.6,28.88,17.12,34.529,17.081,41.93M32.05,2.011H44.523V61.055c-11.955,1.953-23.41,3.193-31.6-1.384-10.547-5.9-11.4-24.638-3.049-32.986,4.231-4.23,12.754-7.213,21.9-5.268V2.845c-.023-.394-.047-.788.277-.834M64.759,15.042H52.286V2.011H64.759Z" transform="translate(0 0)" fill="#484f58"/>
    <path id="Path_7" data-name="Path 7" d="M38.309,7.044C38.3,16.23,38.3,22.827,38.3,33.991c-.53,10.968-.405,19.7-4.425,24.946a23.214,23.214,0,0,1-3.88,3.6c-1.181.889-3.435,2.694-4.71,2.772-1.291.082-4.6-1.79-6.1-2.5a44.709,44.709,0,0,0-5.821-2.768c4.749-2.94,9.249-5.147,11.089-11.089,1.6-5.17,1.384-12.66,1.384-19.959,0-7.209.035-15.589.035-21.952l12.438,0Z" transform="translate(26.45 14.591)" fill="#484f58"/>
  </g>
</svg>
