<svg xmlns="http://www.w3.org/2000/svg" width="67.01" height="66.657" viewBox="0 0 67.01 66.657">
  <g id="bxl-python" transform="translate(-2.993 -3)">
    <path id="Path_18" data-name="Path 18" d="M27.514,35.333h16.1s9.047.145,9.047-8.742v-14.7S54.034,3,36.26,3c-17.015,0-15.955,7.377-15.955,7.377l.022,7.644h16.23v2.3H13.881S2.993,19.081,2.993,36.245,12.5,52.8,12.5,52.8h5.669V44.834s-.309-9.5,9.348-9.5Zm-.208-21.352a2.92,2.92,0,1,1,2.92-2.92,2.92,2.92,0,0,1-2.92,2.92Z" transform="translate(0 0)" fill="#484f58"/>
    <path id="Path_19" data-name="Path 19" d="M47.837,7.534H42.167V15.5s.309,9.5-9.348,9.5H16.72s-9.047-.149-9.047,8.742v14.7s-1.373,8.894,16.4,8.894c17.011,0,15.951-7.377,15.951-7.377L40,42.315H23.773v-2.3h22.68s10.888,1.235,10.888-15.929-9.5-16.557-9.5-16.557ZM33.028,46.355a2.92,2.92,0,1,1-2.92,2.92A2.92,2.92,0,0,1,33.028,46.355Z" transform="translate(12.662 12.325)" fill="#484f58"/>
  </g>
</svg>
