<svg xmlns="http://www.w3.org/2000/svg" width="95.29" height="98.196" viewBox="0 0 95.29 98.196">
  <path id="neuromorphic-computing-icon" d="M68.92,83.163a3.2,3.2,0,0,0-2.4,0,3.14,3.14,0,0,0-1.022.711h0a3.652,3.652,0,0,0-.431.551,2.253,2.253,0,0,0-.184.336H59.814V80.375a11.273,11.273,0,0,1-2.4.8l-.423.072v4.913a1.422,1.422,0,0,0,1.414,1.414h6.5l.168.28a3.091,3.091,0,0,0,.383.471h0a3.028,3.028,0,0,0,1.03.687,3.067,3.067,0,0,0,2.4,0h0a3.106,3.106,0,0,0,1.03-.687,3.147,3.147,0,0,0,.687-1.03,3.17,3.17,0,0,0-1.717-4.138ZM32.128,69.224a8.18,8.18,0,0,1-2.572-.447,10.816,10.816,0,0,1-4.609-3.2,10.472,10.472,0,0,1-2.508-5.408,9.866,9.866,0,0,1,.16-3.6,11.59,11.59,0,0,1-2.316-2.708,9.665,9.665,0,0,1-1.51-5.136,9.282,9.282,0,0,1,1.877-5.432,13.156,13.156,0,0,1,3.2-3.019c0-.423,0-.8,0-1.246a11.455,11.455,0,0,1,2.516-6.87A8.954,8.954,0,0,1,31.9,28.853h.24a7.008,7.008,0,0,1,.335-1.214,8.507,8.507,0,0,1,3.7-4.306,8.108,8.108,0,0,1,5.671-1,7.988,7.988,0,0,1,5.336,4.154,7.7,7.7,0,0,1,10.552-3.4,8.787,8.787,0,0,1,3.722,3.579,7.459,7.459,0,0,1,.8,2.165,7.988,7.988,0,0,1,3.035.431,10.792,10.792,0,0,1,4.7,3.267,10.472,10.472,0,0,1,2.46,5.592,10.161,10.161,0,0,1-.2,3.307,11.982,11.982,0,0,1,2.54,3.011l.056.12a9.458,9.458,0,0,1,1.27,4.969,9.162,9.162,0,0,1-1.821,5.192A12.988,12.988,0,0,1,71,57.769a11.623,11.623,0,0,1-2,7.365,9.17,9.17,0,0,1-6.039,3.994A8.491,8.491,0,0,1,59.51,74.16a8.651,8.651,0,0,1-7.189,1.51,7.509,7.509,0,0,1-4.873-4.425,8.116,8.116,0,0,1-5.592,4.577,8.228,8.228,0,0,1-6.71-1.646l-.1-.088A7.988,7.988,0,0,1,32.1,69.224ZM48.966,29.611V66.684a1.47,1.47,0,0,1,.343.727c.559,3.371,2.045,5,3.738,5.464a5.735,5.735,0,0,0,4.721-1.07,5.24,5.24,0,0,0,2.4-3.994c0-1.757-1.238-3.73-4.577-5.432a1.462,1.462,0,1,1,1.326-2.6c3.643,1.861,5.44,4.154,5.983,6.39a6.39,6.39,0,0,0,3.674-2.708,8.787,8.787,0,0,0,1.422-6.175v-.1a1.47,1.47,0,0,1,.7-1.43,10.672,10.672,0,0,0,3.2-2.772A6.246,6.246,0,0,0,73.17,49.43a6.527,6.527,0,0,0-.895-3.435l-.064-.1a9.4,9.4,0,0,0-2.484-2.764,1.47,1.47,0,0,1-.567-1.685,7.1,7.1,0,0,0,.336-3.035,7.589,7.589,0,0,0-1.781-3.994,7.892,7.892,0,0,0-3.4-2.4,4.961,4.961,0,0,0-2.125-.272h-.064a8.251,8.251,0,0,1-1.741,3.259,1.457,1.457,0,1,1-2.229-1.877,4.385,4.385,0,0,0,.7-5.1,5.727,5.727,0,0,0-2.46-2.348,5.04,5.04,0,0,0-3.291-.5c-1.6.335-3.2,1.669-4.154,4.441ZM46.035,66.739V31.417h0l-.04-.056h0V31.3h0v-.064h0v-.064h0v-.088c-.895-3.627-2.668-5.3-4.513-5.679a5.128,5.128,0,0,0-3.6.671,5.592,5.592,0,0,0-2.4,2.78c-.575,1.55-.248,3.443,1.661,5.216a1.464,1.464,0,1,1-2.253,1.869,8.707,8.707,0,0,1-2.66-4.218,6.039,6.039,0,0,0-3.619,2.253,8.6,8.6,0,0,0-1.885,5.16,10.105,10.105,0,0,0,.088,1.677,1.454,1.454,0,0,1-.679,1.446,10.92,10.92,0,0,0-3.131,2.764,6.39,6.39,0,0,0-1.31,3.7,6.766,6.766,0,0,0,1.054,3.611,9.115,9.115,0,0,0,2.332,2.508,1.478,1.478,0,0,1,.551,1.669,7.077,7.077,0,0,0-.328,3.267A7.669,7.669,0,0,0,27.159,63.7,7.884,7.884,0,0,0,30.5,66a4.993,4.993,0,0,0,1.773.3c.615-2.309,2.484-4.641,6.183-6.534a1.463,1.463,0,0,1,1.334,2.6c-3.515,1.789-4.841,3.89-4.841,5.743a4.913,4.913,0,0,0,1.941,3.7l.088.056a5.336,5.336,0,0,0,4.266,1.126c1.853-.383,3.627-2.061,4.521-5.7a1.326,1.326,0,0,1,.272-.551ZM32.679,40.307a1.462,1.462,0,0,1,2.045,2.085,8.6,8.6,0,0,0-2.58,5.815,9.426,9.426,0,0,0,2.109,6.279,1.47,1.47,0,0,1-2.3,1.829A12.3,12.3,0,0,1,29.2,48.1a11.535,11.535,0,0,1,3.451-7.788Zm25.905,1.23a1.474,1.474,0,0,1,1.717-2.4q.535.391,1.007.8a11.535,11.535,0,0,1,3.8,7.676A12.222,12.222,0,0,1,62.769,55.8a11.549,11.549,0,0,1-.847,1.046,1.462,1.462,0,0,1-2.173-1.957,10.326,10.326,0,0,0,.655-.8,9.386,9.386,0,0,0,1.789-6.239,8.635,8.635,0,0,0-2.844-5.735,8.336,8.336,0,0,0-.8-.615ZM38.19,83.746V81.421a9.585,9.585,0,0,1-1.853-.28c-.335-.088-.655-.184-.975-.3v1.486h-4.17c-.056-.112-.12-.216-.184-.32a3.371,3.371,0,0,0-.423-.535h0a3.147,3.147,0,0,0-1.03-.687,3.2,3.2,0,0,0-1.206-.24,3.131,3.131,0,0,0-2.221.927h0a3.371,3.371,0,0,0-.687,1.03,3.2,3.2,0,0,0-.24,1.214,3.115,3.115,0,0,0,.248,1.214,3.035,3.035,0,0,0,.663,1h0a3.027,3.027,0,0,0,1.006.679h0a3.151,3.151,0,0,0,3.4-.663h0a3.308,3.308,0,0,0,.415-.511c.056-.088.12-.192.168-.288H36.7a1.422,1.422,0,0,0,1.414-1.414Zm6.822,11.079v-16.1a10.085,10.085,0,0,1-1.078.919,8.786,8.786,0,0,1-1.749,1.038V93.459H32.958l-.144-.24a3.259,3.259,0,0,0-.367-.431,3.027,3.027,0,0,0-1.03-.687,3.083,3.083,0,0,0-2.4,0,3.027,3.027,0,0,0-1.03.687,3.147,3.147,0,0,0-.687,1.03,3.067,3.067,0,0,0-.24,1.206,3.107,3.107,0,0,0,.24,1.214,3.2,3.2,0,0,0,.687,1.03,3.147,3.147,0,0,0,1.03.687,3.194,3.194,0,0,0,1.206.24,3.1,3.1,0,0,0,1.19-.232h0a3.2,3.2,0,0,0,1.03-.687,3.52,3.52,0,0,0,.471-.607,2.893,2.893,0,0,0,.2-.383H43.6a1.422,1.422,0,0,0,1.414-1.414Zm7.708-2.684V80.958a8.284,8.284,0,0,1-2.812-1.526h0V92.157l-.312.176a3.755,3.755,0,0,0-.519.423,3.147,3.147,0,0,0-.687,1.03,3.2,3.2,0,0,0-.24,1.206,3.131,3.131,0,0,0,.232,1.19h0A3.2,3.2,0,0,0,52.521,97.9a3.147,3.147,0,0,0,1.03-.687,3.2,3.2,0,0,0,.935-2.245,3.243,3.243,0,0,0-.232-1.182h0a3.027,3.027,0,0,0-.687-1.03,2.748,2.748,0,0,0-.5-.407h0c-.1-.064-.2-.12-.3-.176ZM14.378,58.847h2.636a12.9,12.9,0,0,0-.16,1.55v1.278h-1.03v4.17l.32.176a3.992,3.992,0,0,1,.535.431h0a3.2,3.2,0,0,1,.687,3.451,3.291,3.291,0,0,1-.663,1.007h0a3.133,3.133,0,0,1-4.433.016h0a3.2,3.2,0,0,1-.679-1.007h0a3.107,3.107,0,0,1-.24-1.214,3.2,3.2,0,0,1,.9-2.213h0a2.9,2.9,0,0,1,.511-.415c.088-.064.192-.12.288-.176V60.309a1.422,1.422,0,0,1,.415-1,1.4,1.4,0,0,1,.911-.463ZM3.331,52.026H13.1a12.621,12.621,0,0,0,1.278,2.788H4.737v9.258l.24.152a2.756,2.756,0,0,1,.431.367,3.153,3.153,0,0,1,0,4.481,3.283,3.283,0,0,1-1.03.687A3.2,3.2,0,0,1,3.171,70a3.259,3.259,0,0,1-1.214-.24,3.371,3.371,0,0,1-1.03-.687,3.323,3.323,0,0,1-.687-1.03A3.259,3.259,0,0,1,0,66.827a3.2,3.2,0,0,1,.232-1.19h0a3.2,3.2,0,0,1,.687-1.022,2.883,2.883,0,0,1,.607-.471,2.182,2.182,0,0,1,.391-.24V53.432a1.406,1.406,0,0,1,1.414-1.406Zm2.684-7.732h7.509c-.136.288-.248.583-.351.871a11.527,11.527,0,0,0-.471,1.965H6.015a2.883,2.883,0,0,1-.176.312,3,3,0,0,1-.423.519,3.027,3.027,0,0,1-1.03.687,3.067,3.067,0,0,1-1.206.24,3.1,3.1,0,0,1-1.19-.232h0a3.107,3.107,0,0,1-1.054-.727A3.147,3.147,0,0,1,.248,46.9a3.2,3.2,0,0,1,0-2.4,3.147,3.147,0,0,1,.687-1.03A3.2,3.2,0,0,1,3.2,42.536a3.091,3.091,0,0,1,1.182.232h0a3.131,3.131,0,0,1,1.446,1.166h0c.064.1.12.208.176.312Zm8.978-16.176a3.176,3.176,0,0,1,0,2.42,3.051,3.051,0,0,1-.671,1h0a3.7,3.7,0,0,1-.551.439,3.326,3.326,0,0,1-.335.184v5.064h5.232v.847a.535.535,0,0,1-.216.463,17.4,17.4,0,0,0-1.861,1.518H11.982a1.422,1.422,0,0,1-1.414-1.406v-6.51a2,2,0,0,1-.28-.168,3.6,3.6,0,0,1-.471-.375h0a3.2,3.2,0,0,1-.687-1.03,3.083,3.083,0,0,1-.248-1.214,3.323,3.323,0,0,1,.232-1.19h0A3.075,3.075,0,0,1,9.8,27.135a3.027,3.027,0,0,1,1.03-.687,3.076,3.076,0,0,1,1.206-.248,3.2,3.2,0,0,1,2.245.935,3.283,3.283,0,0,1,.687,1.03ZM55.6,14.378v2.189a3.189,3.189,0,0,1,.871.08,9.633,9.633,0,0,1,1.957.5V15.824H62.6a2.481,2.481,0,0,0,.176.32,3.993,3.993,0,0,0,.431.535h0a3.147,3.147,0,0,0,1.03.687,3.2,3.2,0,0,0,1.206.24,3.259,3.259,0,0,0,1.214-.24,3.292,3.292,0,0,0,1.007-.663h0a3.2,3.2,0,0,0,.687-3.459,3.315,3.315,0,0,0-.671-1.006h0a3.028,3.028,0,0,0-1.007-.679h0a3.035,3.035,0,0,0-1.206-.24,3.107,3.107,0,0,0-1.214.24,3.2,3.2,0,0,0-1.006.663h0a2.871,2.871,0,0,0-.407.511c-.064.088-.12.192-.176.288H57.074A1.422,1.422,0,0,0,55.6,14.378ZM48.775,3.331V19.307a10.282,10.282,0,0,1,1.206-1.038,8.915,8.915,0,0,1,1.6-.927V4.737h9.25c.048.08.1.16.152.24a3.2,3.2,0,0,0,.359.431,3.107,3.107,0,0,0,1.03.687,3.155,3.155,0,0,0,3.451-.687,3.027,3.027,0,0,0,.687-1.03A3.076,3.076,0,0,0,66.755,3.2a3.114,3.114,0,0,0-.248-1.214,3.108,3.108,0,0,0-.687-1.03A3.148,3.148,0,0,0,64.79.24,3.2,3.2,0,0,0,63.584,0a3.131,3.131,0,0,0-1.19.232h0a3.323,3.323,0,0,0-1.03.687,3.524,3.524,0,0,0-.471.607,4.312,4.312,0,0,0-.184.391H50.188a1.422,1.422,0,0,0-1.414,1.414ZM41.05,6.015V16.927a8.787,8.787,0,0,1,2.724,1.326l.088.064a.223.223,0,0,0,0-.072V6.015l.312-.176a3.339,3.339,0,0,0,.559-.423,3.147,3.147,0,0,0,.687-1.03,3.2,3.2,0,0,0,.208-1.19A3.1,3.1,0,0,0,45.4,2h0A3.2,3.2,0,0,0,41.25.248a3.147,3.147,0,0,0-1.03.687,3.2,3.2,0,0,0-.687,1.03,3.075,3.075,0,0,0-.24,1.23,3.091,3.091,0,0,0,.232,1.182h0a3.027,3.027,0,0,0,.687,1.03,2.748,2.748,0,0,0,.5.407h0a2.888,2.888,0,0,0,.312.176ZM24.867,14.993a3.2,3.2,0,0,0,2.4,0,3.051,3.051,0,0,0,1-.671h0a3.65,3.65,0,0,0,.431-.551,2.254,2.254,0,0,0,.184-.335h5.048v4.353a10.129,10.129,0,0,1,2.884-1.014V11.982a1.422,1.422,0,0,0-1.414-1.414h-6.5l-.136-.248a3.092,3.092,0,0,0-.383-.471h0a3.028,3.028,0,0,0-1.03-.687,3.075,3.075,0,0,0-1.206-.248,3.291,3.291,0,0,0-1.19.232h0a3.2,3.2,0,0,0-1.03.687,3.147,3.147,0,0,0-.751,1.022,3.2,3.2,0,0,0-.24,1.206,3.259,3.259,0,0,0,.24,1.214,3.2,3.2,0,0,0,1.717,1.717Zm55.98,24.148H77.228a11.886,11.886,0,0,0,.184-1.6V36.289H79.44V32.176a3.57,3.57,0,0,1-.855-.607h0a3.075,3.075,0,0,1-.687-1.022,3.108,3.108,0,0,1-.24-1.214,3.2,3.2,0,0,1,.9-2.213h0a3.027,3.027,0,0,1,1.03-.687,3.076,3.076,0,0,1,1.206-.248,3.123,3.123,0,0,1,1.222.248,3.011,3.011,0,0,1,1,.671h0A3.388,3.388,0,0,1,83.7,28.11h0a3.2,3.2,0,0,1,0,2.4,3.293,3.293,0,0,1-.663,1.006h0a3.309,3.309,0,0,1-.511.415c-.1.056-.192.12-.3.168v5.592a1.4,1.4,0,0,1-.407,1,1.422,1.422,0,0,1-1,.415Zm11.079,6.822h-10.6a12.426,12.426,0,0,0-1.134-2.6h0l-.12-.208H90.536V33.941L90.3,33.8a4,4,0,0,1-.439-.367,3.283,3.283,0,0,1-.687-1.03,3.2,3.2,0,0,1,0-2.4,3.283,3.283,0,0,1,.687-1.03,3.165,3.165,0,0,1,5.2,3.4h0a3.028,3.028,0,0,1-.687,1.03,3.2,3.2,0,0,1-.6.471,2.893,2.893,0,0,1-.383.2v10.5a1.422,1.422,0,0,1-1.414,1.414ZM89.242,53.7H80.814c.144-.312.272-.631.383-.943a10.05,10.05,0,0,0,.479-1.885h7.565c.056-.1.112-.208.176-.3a3.355,3.355,0,0,1,.415-.527,3.474,3.474,0,0,1,1.03-.687,3.2,3.2,0,0,1,2.4,0h0a3.2,3.2,0,0,1,1.749,1.773,3.26,3.26,0,0,1,.24,1.214A3.14,3.14,0,0,1,95,53.551a3.2,3.2,0,0,1-.679,1.022,3.291,3.291,0,0,1-1.038.695,3.2,3.2,0,0,1-1.206.24,3.324,3.324,0,0,1-1.19-.232h0a3.347,3.347,0,0,1-1.03-.695,3.091,3.091,0,0,1-.4-.5h0c-.064-.1-.12-.2-.176-.3ZM80.263,69.9a3.2,3.2,0,0,1,0-2.4,3.14,3.14,0,0,1,.671-1h0a3.194,3.194,0,0,1,.543-.431l.336-.184V60.8H75.63v-.991a.527.527,0,0,1,.224-.479A17.475,17.475,0,0,0,77.6,57.961h5.647a1.422,1.422,0,0,1,1.422,1.414v6.5l.288.168a3.092,3.092,0,0,1,.471.383h0a3.147,3.147,0,0,1,.687,1.03,3.067,3.067,0,0,1,.24,1.206,3.1,3.1,0,0,1-.232,1.19h0a3.152,3.152,0,0,1-5.831,0Z" transform="translate(0 0)" fill="#fff"/>
</svg>
